<?xml version="1.0" encoding="utf-8"?>
<svg xmlns="http://www.w3.org/2000/svg" fill-rule="evenodd" stroke-linejoin="round" stroke-miterlimit="2" clip-rule="evenodd" viewBox="0 0 1563 272">
  <path d="M0 0h1562.5v271.242H0z"/>
  <path fill="url(#a)" fill-rule="nonzero" d="M88.613 135.704c0 3.897.333 7.795.817 11.509.183 1.4-.528 2.768-1.754 3.469-31.325 17.882-52.184 34.096-46.148 43.47 7.633 11.852 40.104 8.281 72.089.325 54.056-13.361 87.577-27.147 100.98-34.176-12.986 35.454-56.436 48.307-86.694 39.859-1.105-.309-1.623 1.46-.811 1.948 11.04 6.331 24.029 9.74 37.667 9.74 39.476 0 71.873-29.576 75.971-67.978a3.533 3.533 0 0 1 1.797-2.723c33.941-18.674 54.493-36.442 50.658-45.872-2.876-7.506-20.519-8.571-46.439-3.966a3.501 3.501 0 0 0-2.105 1.245c-27.554 33.865-98.33 64.712-135.947 59.247-2.761-.487-2.646-4.373.44-4.696 42.865-2.848 107.923-37.969 112.001-56.211a3.375 3.375 0 0 0-.377-2.442c-7.405-12.619-31.504-29.058-55.999-29.058-42.213 0-76.146 33.933-76.146 76.31Z"/>
  <path fill="#ddd" fill-rule="nonzero" d="M369.405 205.05c0 10.602-5.539 15.904-16.616 15.904-5.38 0-9.653-1.345-12.817-4.036-3.165-2.69-4.748-6.646-4.748-11.868V90.403c0-11.868 3.205-21.086 9.614-27.653 6.408-6.567 15.389-9.851 26.94-9.851h51.034c5.064 0 9.099 1.425 12.105 4.273 3.007 2.848 4.51 6.725 4.51 11.631 0 4.589-1.503 8.308-4.51 11.156-3.006 2.848-7.041 4.273-12.105 4.273h-37.978c-4.59 0-7.992.435-10.207 1.305-2.216.87-3.64 2.769-4.273 5.697-.633 2.927-.949 7.477-.949 13.648 0 4.273-.158 8.901-.475 13.886-.316 4.985-.87 9.692-1.661 14.123 6.171-4.905 15.191-7.358 27.059-7.358h16.616c10.918 0 16.378 5.301 16.378 15.903 0 10.603-5.46 15.904-16.378 15.904h-18.515c-9.02 0-15.112 1.424-18.277 4.272-3.165 2.849-4.747 8.466-4.747 16.853v26.585ZM512.061 220.954c-13.767 0-25.477-2.73-35.13-8.19-9.653-5.459-16.972-14.439-21.956-26.94-4.985-12.502-7.477-29.434-7.477-50.796 0-21.363 2.492-38.216 7.477-50.559 4.984-12.343 12.303-21.126 21.956-26.348 9.653-5.222 21.363-7.833 35.13-7.833 13.925 0 25.675 2.611 35.249 7.833 9.573 5.222 16.852 14.005 21.837 26.348 4.985 12.343 7.477 29.196 7.477 50.559 0 21.362-2.492 38.294-7.477 50.796-4.985 12.501-12.264 21.481-21.837 26.94-9.574 5.46-21.324 8.19-35.249 8.19Zm0-31.333c6.33 0 11.75-1.503 16.259-4.509 4.51-3.007 7.992-8.466 10.444-16.379 2.453-7.912 3.68-19.147 3.68-33.705 0-14.717-1.227-25.913-3.68-33.588-2.452-7.674-5.934-12.896-10.444-15.666-4.509-2.769-9.929-4.153-16.259-4.153-6.172 0-11.552 1.384-16.141 4.153-4.589 2.77-8.11 7.992-10.563 15.666-2.452 7.675-3.679 18.871-3.679 33.588 0 14.558 1.227 25.793 3.679 33.705 2.453 7.913 5.974 13.372 10.563 16.379 4.589 3.006 9.969 4.509 16.141 4.509ZM638.102 205.05c0 10.602-5.539 15.904-16.616 15.904-5.38 0-9.653-1.345-12.818-4.036-3.165-2.69-4.747-6.646-4.747-11.868v-93.284c0-14.875 1.978-26.783 5.934-35.724 3.956-8.94 10.444-15.468 19.464-19.582 9.02-4.114 21.046-6.172 36.079-6.172 19.939 0 35.012 4.629 45.218 13.886 10.207 9.257 15.31 25.121 15.31 47.592v93.284c0 10.602-5.538 15.904-16.615 15.904-5.38 0-9.653-1.345-12.818-4.036-3.165-2.69-4.747-6.646-4.747-11.868v-93.284c0-11.71-2.018-20.057-6.053-25.042-4.035-4.985-10.8-7.477-20.295-7.477-7.437 0-13.134 1.108-17.09 3.323-3.956 2.215-6.646 5.697-8.07 10.444-1.424 4.747-2.136 10.998-2.136 18.752v93.284ZM797.611 220.954c-3.956 0-7.952-.91-11.987-2.73-4.036-1.82-6.053-4.787-6.053-8.901V98.236c0-5.064 1.266-8.545 3.798-10.444 2.532-1.899 4.589-3.086 6.171-3.56h-45.811c-3.798 0-6.607-1.702-8.427-5.104-1.819-3.402-2.729-6.923-2.729-10.563 0-3.956.949-7.556 2.848-10.8 1.899-3.244 4.668-4.866 8.308-4.866h106.102c3.639 0 6.409 1.622 8.308 4.866 1.898 3.244 2.848 6.844 2.848 10.8 0 3.64-.91 7.161-2.73 10.563-1.82 3.402-4.628 5.104-8.426 5.104h-36.08v125.091c0 3.956-1.622 6.883-4.866 8.782-3.244 1.899-7.002 2.849-11.274 2.849ZM911.071 220.954c-6.013 0-12.343-.475-18.989-1.425-6.647-.949-12.027-2.215-16.141-3.797-6.646-2.691-9.969-7.201-9.969-13.53 0-4.589 1.384-8.268 4.153-11.038 2.77-2.769 7.161-4.154 13.174-4.154 4.115 0 9.099.554 14.954 1.662 5.855 1.108 10.998 1.662 15.429 1.662 9.811 0 16.853-1.266 21.125-3.798 4.273-2.532 6.409-7.675 6.409-15.429 0-4.589-1.622-8.466-4.866-11.631-3.244-3.165-9.692-6.171-19.345-9.02-17.565-5.222-30.264-11.71-38.097-19.464-7.833-7.754-11.75-17.802-11.75-30.145 0-10.76 2.414-19.899 7.24-27.416 4.826-7.516 11.512-13.252 20.057-17.208 8.545-3.957 18.277-5.935 29.196-5.935 12.818 0 23.42 1.741 31.807 5.222 6.646 2.532 9.969 7.042 9.969 13.53 0 4.589-1.384 8.268-4.154 11.038-2.769 2.769-7.16 4.154-13.173 4.154-3.956 0-8.229-.436-12.818-1.306-4.589-.87-9.099-1.305-13.53-1.305-6.804 0-11.947 1.186-15.428 3.56-3.482 2.374-5.222 6.33-5.222 11.868 0 5.064 2.452 9.653 7.358 13.767 4.905 4.115 13.925 8.15 27.059 12.106 15.034 4.431 25.398 10.404 31.095 17.921 5.697 7.517 8.545 17.051 8.545 28.602 0 16.774-5.578 29.552-16.734 38.335-11.156 8.782-26.941 13.174-47.354 13.174ZM1033.08 205.05c0 10.602-5.538 15.904-16.615 15.904-5.381 0-9.653-1.345-12.818-4.036-3.165-2.69-4.747-6.646-4.747-11.868V103.695c0-17.723 4.668-31.055 14.004-39.995 9.337-8.941 25.003-13.412 46.998-13.412 16.3 0 29.078 4.352 38.335 13.055 9.257 8.704 13.886 22.708 13.886 42.014 0 16.774-4.392 29.591-13.174 38.453-8.783 8.862-21.165 13.292-37.148 13.292-9.019 0-15.547.673-19.582 2.018-4.035 1.345-6.567 3.798-7.596 7.358-1.028 3.561-1.543 8.743-1.543 15.548v23.024Zm-2.136-68.598a71.598 71.598 0 0 1 5.459-4.154c1.741-1.187 4.075-2.136 7.003-2.848 2.927-.713 6.844-1.069 11.749-1.069 6.805 0 12.185-.593 16.141-1.78 3.956-1.187 6.765-3.442 8.426-6.765 1.662-3.323 2.493-8.149 2.493-14.479 0-8.387-.989-14.519-2.967-18.396-1.978-3.877-4.748-6.409-8.308-7.595-3.561-1.187-7.873-1.781-12.936-1.781-9.179 0-15.627 1.662-19.346 4.985-3.718 3.323-5.578 9.099-5.578 17.328 0 5.855-.158 12.263-.474 19.226-.317 6.963-.871 12.739-1.662 17.328ZM1166.95 205.05c0 10.602-5.539 15.904-16.616 15.904-5.38 0-9.652-1.345-12.817-4.036-3.165-2.69-4.748-6.646-4.748-11.868v-93.996c0-21.838 4.431-37.425 13.293-46.761 8.861-9.336 22.708-14.005 41.539-14.005 19.305 0 33.547 4.748 42.725 14.242 9.178 9.495 13.767 25.003 13.767 46.524v93.996c0 10.602-5.538 15.904-16.615 15.904-5.38 0-9.653-1.345-12.818-4.036-3.165-2.69-4.747-6.646-4.747-11.868v-57.205a50.034 50.034 0 0 1-9.851 6.884c-3.56 1.899-7.714 2.848-12.461 2.848-6.963 0-12.146 1.266-15.548 3.798-3.402 2.532-5.103 7.042-5.103 13.53v30.145Zm-1.424-69.548c2.532-2.532 5.578-4.51 9.138-5.934 3.561-1.424 7.873-2.136 12.937-2.136 6.013 0 10.641-.475 13.885-1.424 3.244-.95 5.499-2.77 6.765-5.46s1.899-6.646 1.899-11.868c0-11.71-1.661-19.741-4.984-24.092-3.323-4.352-9.258-6.528-17.803-6.528-7.912 0-13.332 2.255-16.259 6.765-2.928 4.51-4.391 12.778-4.391 24.805 0 6.171-.08 11.393-.238 15.666-.158 4.272-.475 7.674-.949 10.206ZM1307 136.689c0 18.831 2.295 32.321 6.884 40.471 4.589 8.149 11.393 12.224 20.413 12.224 5.697 0 10.681-.435 14.954-1.305 4.272-.871 8.149-1.306 11.631-1.306 6.33 0 10.919 1.306 13.767 3.917 2.848 2.611 4.273 5.973 4.273 10.088 0 5.38-1.939 9.494-5.816 12.343-3.877 2.848-8.782 4.826-14.717 5.934a98.799 98.799 0 0 1-18.158 1.661c-17.09 0-30.66-3.165-40.708-9.494-10.048-6.33-17.248-15.706-21.6-28.128s-6.528-27.89-6.528-46.405c0-18.514 2.176-34.22 6.528-47.117 4.352-12.897 11.552-22.668 21.6-29.314 10.048-6.646 23.618-9.97 40.708-9.97 6.172 0 12.224.554 18.158 1.662 5.935 1.108 10.84 3.086 14.717 5.934 3.877 2.848 5.816 6.963 5.816 12.343 0 3.956-1.425 7.279-4.273 9.969-2.848 2.69-7.437 4.036-13.767 4.036-3.482 0-7.359-.436-11.631-1.306-4.273-.87-9.257-1.305-14.954-1.305-11.077 0-18.396 4.47-21.956 13.411-3.561 8.94-5.341 22.826-5.341 41.657ZM1412.15 219.055c-3.007 0-5.539-1.187-7.596-3.561-2.057-2.373-3.086-5.38-3.086-9.02V95.388c0-14.875 4.589-25.675 13.767-32.401 9.178-6.725 23.974-10.088 44.387-10.088h29.671c5.222 0 9.297 1.385 12.224 4.154 2.928 2.77 4.392 6.686 4.392 11.75 0 4.905-1.464 8.703-4.392 11.393-2.927 2.69-7.002 4.036-12.224 4.036h-31.332c-7.912 0-13.609 1.582-17.09 4.747-3.482 3.165-5.222 8.308-5.222 15.429 0 2.531-.159 5.657-.475 9.375-.317 3.719-.791 7.952-1.424 12.699 2.69-2.215 6.092-3.995 10.206-5.34 4.115-1.345 8.15-2.018 12.106-2.018h23.499c4.431 0 7.873 1.345 10.325 4.035 2.453 2.69 3.68 6.409 3.68 11.156 0 4.748-1.266 8.546-3.798 11.394-2.532 2.848-5.934 4.273-10.207 4.273h-25.398c-7.279 0-12.185 1.463-14.717 4.391-2.531 2.927-3.797 8.822-3.797 17.683v15.667h53.644c5.855 0 10.088 1.265 12.699 3.797 2.611 2.532 3.917 6.647 3.917 12.343 0 5.381-1.266 9.258-3.798 11.631-2.532 2.374-6.805 3.561-12.818 3.561h-77.143Z"/>
  <defs>
    <linearGradient id="a" x1="0" x2="1" y1="0" y2="0" gradientTransform="translate(40.488 135.622) scale(253.154)" gradientUnits="userSpaceOnUse">
      <stop offset="0" stop-color="#23dbf9"/>
      <stop offset="1" stop-color="#ff64bd"/>
    </linearGradient>
  </defs>
</svg>